<mxfile host="app.diagrams.net" modified="2021-01-08T23:13:27.414Z" agent="5.0 (X11; Linux x86_64) AppleWebKit/537.36 (KHTML, like Gecko) Chrome/87.0.4280.66 Safari/537.36" etag="nd9OiR9HipQe9nKwCxqo" version="14.1.8" type="github" pages="2">
  <diagram id="k8EkvNdDGj31XDd_zV52" name="Page-2">
    <mxGraphModel dx="1379" dy="773" grid="1" gridSize="10" guides="1" tooltips="1" connect="1" arrows="1" fold="1" page="1" pageScale="1" pageWidth="850" pageHeight="1100" math="0" shadow="0">
      <root>
        <mxCell id="xyKw549dWuxi-CQc9__s-0" />
        <mxCell id="xyKw549dWuxi-CQc9__s-1" parent="xyKw549dWuxi-CQc9__s-0" />
        <mxCell id="6_nzheeOkEoSt1_5COXQ-0" value="" style="rounded=0;whiteSpace=wrap;html=1;rotation=90;" parent="xyKw549dWuxi-CQc9__s-1" vertex="1">
          <mxGeometry x="400" y="200" width="320" height="160" as="geometry" />
        </mxCell>
        <mxCell id="xyKw549dWuxi-CQc9__s-2" value="ADC&lt;br&gt;partition&lt;br&gt;external" style="whiteSpace=wrap;html=1;aspect=fixed;" parent="xyKw549dWuxi-CQc9__s-1" vertex="1">
          <mxGeometry x="520" y="160" width="80" height="80" as="geometry" />
        </mxCell>
        <mxCell id="xyKw549dWuxi-CQc9__s-3" value="Firewall" style="whiteSpace=wrap;html=1;aspect=fixed;" parent="xyKw549dWuxi-CQc9__s-1" vertex="1">
          <mxGeometry x="280" y="160" width="80" height="80" as="geometry" />
        </mxCell>
        <mxCell id="xyKw549dWuxi-CQc9__s-4" value="" style="endArrow=none;html=1;exitX=1;exitY=0.5;exitDx=0;exitDy=0;entryX=0;entryY=0.5;entryDx=0;entryDy=0;" parent="xyKw549dWuxi-CQc9__s-1" source="xyKw549dWuxi-CQc9__s-3" target="xyKw549dWuxi-CQc9__s-2" edge="1">
          <mxGeometry width="50" height="50" relative="1" as="geometry">
            <mxPoint x="440" y="420" as="sourcePoint" />
            <mxPoint x="490" y="370" as="targetPoint" />
          </mxGeometry>
        </mxCell>
        <mxCell id="xyKw549dWuxi-CQc9__s-6" value="" style="endArrow=none;html=1;entryX=0.5;entryY=1;entryDx=0;entryDy=0;" parent="xyKw549dWuxi-CQc9__s-1" target="xyKw549dWuxi-CQc9__s-3" edge="1">
          <mxGeometry width="50" height="50" relative="1" as="geometry">
            <mxPoint x="320" y="320" as="sourcePoint" />
            <mxPoint x="490" y="370" as="targetPoint" />
            <Array as="points" />
          </mxGeometry>
        </mxCell>
        <mxCell id="xyKw549dWuxi-CQc9__s-8" value="Arista" style="rounded=0;whiteSpace=wrap;html=1;" parent="xyKw549dWuxi-CQc9__s-1" vertex="1">
          <mxGeometry x="280" y="320" width="80" height="40" as="geometry" />
        </mxCell>
        <mxCell id="xyKw549dWuxi-CQc9__s-9" value="ADC&lt;br&gt;partition&lt;br&gt;internal" style="whiteSpace=wrap;html=1;aspect=fixed;" parent="xyKw549dWuxi-CQc9__s-1" vertex="1">
          <mxGeometry x="520" y="300" width="80" height="80" as="geometry" />
        </mxCell>
        <mxCell id="xyKw549dWuxi-CQc9__s-10" value="" style="endArrow=none;html=1;exitX=1;exitY=0.5;exitDx=0;exitDy=0;entryX=0;entryY=0.5;entryDx=0;entryDy=0;" parent="xyKw549dWuxi-CQc9__s-1" source="xyKw549dWuxi-CQc9__s-8" target="xyKw549dWuxi-CQc9__s-9" edge="1">
          <mxGeometry width="50" height="50" relative="1" as="geometry">
            <mxPoint x="350" y="470" as="sourcePoint" />
            <mxPoint x="490" y="510" as="targetPoint" />
          </mxGeometry>
        </mxCell>
        <mxCell id="xyKw549dWuxi-CQc9__s-11" value="Servers" style="whiteSpace=wrap;html=1;aspect=fixed;" parent="xyKw549dWuxi-CQc9__s-1" vertex="1">
          <mxGeometry x="240" y="440" width="40" height="40" as="geometry" />
        </mxCell>
        <mxCell id="xyKw549dWuxi-CQc9__s-13" value="" style="endArrow=none;html=1;" parent="xyKw549dWuxi-CQc9__s-1" source="xyKw549dWuxi-CQc9__s-11" edge="1">
          <mxGeometry width="50" height="50" relative="1" as="geometry">
            <mxPoint x="270" y="410" as="sourcePoint" />
            <mxPoint x="320" y="360" as="targetPoint" />
          </mxGeometry>
        </mxCell>
        <mxCell id="xyKw549dWuxi-CQc9__s-14" value="Servers" style="whiteSpace=wrap;html=1;aspect=fixed;" parent="xyKw549dWuxi-CQc9__s-1" vertex="1">
          <mxGeometry x="300" y="440" width="40" height="40" as="geometry" />
        </mxCell>
        <mxCell id="xyKw549dWuxi-CQc9__s-15" value="Servers" style="whiteSpace=wrap;html=1;aspect=fixed;" parent="xyKw549dWuxi-CQc9__s-1" vertex="1">
          <mxGeometry x="360" y="440" width="40" height="40" as="geometry" />
        </mxCell>
        <mxCell id="xyKw549dWuxi-CQc9__s-16" value="" style="endArrow=none;html=1;exitX=0.5;exitY=0;exitDx=0;exitDy=0;" parent="xyKw549dWuxi-CQc9__s-1" source="xyKw549dWuxi-CQc9__s-15" edge="1">
          <mxGeometry width="50" height="50" relative="1" as="geometry">
            <mxPoint x="250" y="450" as="sourcePoint" />
            <mxPoint x="320" y="360" as="targetPoint" />
          </mxGeometry>
        </mxCell>
        <mxCell id="xyKw549dWuxi-CQc9__s-17" value="" style="endArrow=none;html=1;exitX=0.5;exitY=0;exitDx=0;exitDy=0;" parent="xyKw549dWuxi-CQc9__s-1" source="xyKw549dWuxi-CQc9__s-14" edge="1">
          <mxGeometry width="50" height="50" relative="1" as="geometry">
            <mxPoint x="270" y="410" as="sourcePoint" />
            <mxPoint x="320" y="360" as="targetPoint" />
          </mxGeometry>
        </mxCell>
      </root>
    </mxGraphModel>
  </diagram>
  <diagram id="dELCox2J8Vh3dwzdTJPM" name="Page-3">
    <mxGraphModel dx="1379" dy="773" grid="1" gridSize="10" guides="1" tooltips="1" connect="1" arrows="1" fold="1" page="1" pageScale="1" pageWidth="850" pageHeight="1100" math="0" shadow="0">
      <root>
        <mxCell id="2otHCrnPiioCd6f6IcFH-0" />
        <mxCell id="2otHCrnPiioCd6f6IcFH-1" parent="2otHCrnPiioCd6f6IcFH-0" />
        <mxCell id="2otHCrnPiioCd6f6IcFH-2" value="ADC" style="whiteSpace=wrap;html=1;aspect=fixed;" parent="2otHCrnPiioCd6f6IcFH-1" vertex="1">
          <mxGeometry x="520" y="300" width="80" height="80" as="geometry" />
        </mxCell>
        <mxCell id="2otHCrnPiioCd6f6IcFH-3" value="Firewall" style="whiteSpace=wrap;html=1;aspect=fixed;" parent="2otHCrnPiioCd6f6IcFH-1" vertex="1">
          <mxGeometry x="280" y="160" width="80" height="80" as="geometry" />
        </mxCell>
        <mxCell id="2otHCrnPiioCd6f6IcFH-5" value="" style="endArrow=none;html=1;entryX=0.5;entryY=1;entryDx=0;entryDy=0;" parent="2otHCrnPiioCd6f6IcFH-1" target="2otHCrnPiioCd6f6IcFH-3" edge="1">
          <mxGeometry width="50" height="50" relative="1" as="geometry">
            <mxPoint x="320" y="320" as="sourcePoint" />
            <mxPoint x="490" y="370" as="targetPoint" />
            <Array as="points" />
          </mxGeometry>
        </mxCell>
        <mxCell id="2otHCrnPiioCd6f6IcFH-6" value="Arista" style="rounded=0;whiteSpace=wrap;html=1;" parent="2otHCrnPiioCd6f6IcFH-1" vertex="1">
          <mxGeometry x="280" y="320" width="80" height="40" as="geometry" />
        </mxCell>
        <mxCell id="2otHCrnPiioCd6f6IcFH-8" value="" style="endArrow=none;html=1;exitX=1;exitY=0.5;exitDx=0;exitDy=0;" parent="2otHCrnPiioCd6f6IcFH-1" source="2otHCrnPiioCd6f6IcFH-6" edge="1">
          <mxGeometry width="50" height="50" relative="1" as="geometry">
            <mxPoint x="350" y="470" as="sourcePoint" />
            <mxPoint x="518" y="340" as="targetPoint" />
            <Array as="points">
              <mxPoint x="520" y="340" />
            </Array>
          </mxGeometry>
        </mxCell>
        <mxCell id="2otHCrnPiioCd6f6IcFH-9" value="Servers" style="whiteSpace=wrap;html=1;aspect=fixed;" parent="2otHCrnPiioCd6f6IcFH-1" vertex="1">
          <mxGeometry x="240" y="440" width="40" height="40" as="geometry" />
        </mxCell>
        <mxCell id="2otHCrnPiioCd6f6IcFH-10" value="" style="endArrow=none;html=1;" parent="2otHCrnPiioCd6f6IcFH-1" source="2otHCrnPiioCd6f6IcFH-9" edge="1">
          <mxGeometry width="50" height="50" relative="1" as="geometry">
            <mxPoint x="270" y="410" as="sourcePoint" />
            <mxPoint x="320" y="360" as="targetPoint" />
          </mxGeometry>
        </mxCell>
        <mxCell id="2otHCrnPiioCd6f6IcFH-11" value="Servers" style="whiteSpace=wrap;html=1;aspect=fixed;" parent="2otHCrnPiioCd6f6IcFH-1" vertex="1">
          <mxGeometry x="300" y="440" width="40" height="40" as="geometry" />
        </mxCell>
        <mxCell id="2otHCrnPiioCd6f6IcFH-12" value="Servers" style="whiteSpace=wrap;html=1;aspect=fixed;" parent="2otHCrnPiioCd6f6IcFH-1" vertex="1">
          <mxGeometry x="360" y="440" width="40" height="40" as="geometry" />
        </mxCell>
        <mxCell id="2otHCrnPiioCd6f6IcFH-13" value="" style="endArrow=none;html=1;exitX=0.5;exitY=0;exitDx=0;exitDy=0;" parent="2otHCrnPiioCd6f6IcFH-1" source="2otHCrnPiioCd6f6IcFH-12" edge="1">
          <mxGeometry width="50" height="50" relative="1" as="geometry">
            <mxPoint x="250" y="450" as="sourcePoint" />
            <mxPoint x="320" y="360" as="targetPoint" />
          </mxGeometry>
        </mxCell>
        <mxCell id="2otHCrnPiioCd6f6IcFH-14" value="" style="endArrow=none;html=1;exitX=0.5;exitY=0;exitDx=0;exitDy=0;" parent="2otHCrnPiioCd6f6IcFH-1" source="2otHCrnPiioCd6f6IcFH-11" edge="1">
          <mxGeometry width="50" height="50" relative="1" as="geometry">
            <mxPoint x="270" y="410" as="sourcePoint" />
            <mxPoint x="320" y="360" as="targetPoint" />
          </mxGeometry>
        </mxCell>
        <mxCell id="2otHCrnPiioCd6f6IcFH-16" value="Trust" style="text;html=1;strokeColor=none;fillColor=none;align=center;verticalAlign=middle;whiteSpace=wrap;rounded=0;" parent="2otHCrnPiioCd6f6IcFH-1" vertex="1">
          <mxGeometry x="280" y="260" width="40" height="20" as="geometry" />
        </mxCell>
      </root>
    </mxGraphModel>
  </diagram>
</mxfile>
